PathFileType	4	(X/Y/Z)	D:\TRACE\spotREDO_2-26-24\spot_justBody_Motion_2_7-v60.trc
DataRate	CameraRate	NumFrames	NumMarkers	Units	OrigDataRate	OrigDataStartFrame	OrigNumFrames
100.00	100.00	      28	9	mm	100.00	2626	      7000
Frame#	Time	front left toe			Front right toe			aft left toe			aft right toe			Arm			FL body			FR body			AL Body			AR Body			
		X1	Y1	Z1	X2	Y2	Z2	X3	Y3	Z3	X4	Y4	Z4	X5	Y5	Z5	X6	Y6	Z6	X7	Y7	Z7	X8	Y8	Z8	X9	Y9	Z9	

2626	26.250	-155.82651	23.47847	-171.84644	333.79889	19.21172	-70.54092	-251.61134	28.99224	255.94548	191.75409	25.87770	354.64838	172.47870	826.77673	-293.43274	91.09502	565.62665	-297.36322	243.61774	571.65509	-265.28687	-96.52493	541.37360	566.33557	41.84784	547.64319	597.29767	
2627	26.260	-157.08656	23.52728	-172.28271	332.99664	18.98720	-70.85077	-252.69331	29.75474	255.51953	191.00052	26.39375	354.74142	171.93423	826.54242	-293.21524	90.38586	565.52228	-297.05621	242.85091	571.51514	-264.86880	-96.94022	542.14960	566.90350	40.82526	548.24384	597.70172	
2628	26.270	-157.54907	23.06329	-172.44063	331.08240	18.25261	-71.37820	-253.56711	30.15662	255.32840	189.75130	27.19228	354.34070	171.16061	826.52881	-292.96030	89.47067	565.34741	-296.49478	241.99115	571.43561	-264.50049	-98.03498	542.70197	567.14874	40.30861	548.91809	598.18884	
2629	26.280	-158.47321	22.43797	-172.74222	331.13388	18.40488	-71.40387	-254.24564	30.55352	255.10619	189.39166	27.86012	354.13748	170.50887	826.36133	-292.70395	88.81001	565.07166	-296.14651	241.26083	571.38123	-264.14050	-98.68668	543.44214	567.63629	39.60409	549.45636	598.67139	
2630	26.290	-159.32561	22.27305	-172.95634	330.46185	18.23617	-71.42590	-255.13498	31.07303	254.66040	188.22147	28.65231	353.95560	169.86014	826.04169	-292.54916	88.19337	565.00781	-295.66864	240.35446	571.29413	-263.76181	-99.48833	544.14545	568.05707	38.73757	550.21362	599.11688	
2631	26.300	-160.01073	21.84352	-173.32501	329.53876	17.84010	-71.68877	-256.04626	31.71598	254.30322	187.16081	28.81392	353.64532	169.30347	825.82019	-292.57751	87.49294	564.77417	-295.31232	239.65654	571.11157	-263.45807	-100.44184	544.79980	568.31696	38.00850	550.82996	599.52094	
2632	26.310	-160.92957	21.52031	-173.36459	328.77216	17.75613	-71.87658	-256.70380	32.16757	254.05016	186.92921	30.28894	353.54962	168.38976	825.65356	-292.46579	86.67767	564.56116	-295.10309	238.83180	570.61536	-262.77789	-101.17210	545.42029	568.62610	36.63164	551.51813	599.69092	
2633	26.320	-161.77283	21.06138	-173.68161	327.41327	17.18686	-72.50767	-257.24136	32.47105	253.95265	185.97868	30.40583	353.04239	167.54996	825.43103	-292.37323	85.78645	564.35004	-294.81314	238.03566	570.69000	-262.80399	-102.10810	546.17902	568.92993	36.24448	552.25549	600.05365	
2634	26.330	-162.29883	20.87994	-173.95233	327.31693	17.24947	-72.50588	-258.49945	33.13208	253.55835	184.84116	30.94916	352.73438	166.77261	825.32373	-292.38196	85.03053	564.14240	-294.36725	237.39932	570.56360	-262.45023	-102.91645	546.72388	569.32233	35.63829	552.73431	600.43951	
2635	26.340	-163.21872	20.64140	-174.36078	326.58148	17.10581	-72.72651	-259.13406	33.55864	253.38660	184.17244	31.60366	352.53647	166.00229	825.18457	-292.33340	84.16185	564.11414	-294.20291	236.51393	570.45056	-262.16064	-103.63504	547.25537	569.46844	34.63264	553.40155	600.76605	
2636	26.350	-164.07628	20.15187	-174.61995	325.82651	17.07844	-73.01323	-259.76666	33.93062	252.99216	183.94754	32.51929	352.16150	165.05815	825.06836	-292.29980	83.31868	563.92773	-293.99048	235.79742	570.16608	-261.98041	-104.63716	547.78912	569.83801	33.73788	554.04260	600.98718	
2637	26.360	-164.70927	19.77554	-174.95256	325.15921	16.96582	-73.09446	-260.28134	34.33783	252.82629	182.82835	32.96384	351.95993	164.25792	824.85797	-292.30801	82.37335	563.63330	-293.77087	234.75778	569.93738	-261.75259	-105.32845	548.30402	570.13776	33.06179	554.44879	601.11877	
2638	26.370	-165.17355	19.59234	-175.01256	323.87149	16.35473	-73.59801	-261.18506	34.85808	252.40224	182.18024	33.44649	351.85721	163.54016	824.58911	-292.29996	81.48057	563.41718	-293.59061	233.88712	569.74054	-261.55594	-106.25271	548.90741	570.30231	31.97114	555.12122	601.33032	
2639	26.380	-165.85472	19.00729	-175.14134	323.12619	16.03689	-73.91136	-261.67053	35.31954	252.13939	181.75232	34.06736	351.48016	162.46828	824.13824	-292.36429	80.85886	563.04230	-293.37158	233.02342	569.59668	-261.37946	-107.07727	549.52869	570.53802	31.27628	555.59515	601.65991	
2640	26.390	-165.98033	20.06365	-175.44298	323.28821	16.01911	-73.89427	-262.28018	35.21122	252.26384	181.51694	35.17053	351.42181	161.88332	823.78345	-292.37036	79.77534	562.67572	-293.18152	232.32942	569.27820	-261.30307	-107.83402	550.14532	570.70758	30.29025	556.33685	601.67291	
2641	26.400	-164.19711	26.76407	-173.12076	322.87103	15.74729	-74.05542	-262.99518	35.51162	251.54787	180.53632	35.54942	351.11810	160.24728	823.62054	-292.74326	79.18479	562.06366	-293.11548	231.47586	568.96808	-261.12024	-109.05448	550.51196	570.69678	29.27195	557.00226	601.73126	
2642	26.410	-163.40985	37.92279	-168.35895	321.33698	15.11840	-74.47260	-263.94980	36.09573	251.09450	179.44353	36.02462	350.76215	158.68735	823.03479	-293.31885	78.61415	561.48010	-293.20819	230.96127	568.71844	-261.00726	-109.99597	550.83539	570.53741	28.02085	557.68854	601.63306	
2643	26.420	-164.58757	49.65005	-164.98018	321.08813	14.96754	-74.65219	-264.20828	36.40564	250.91171	179.30090	37.02473	350.63440	157.37141	822.55530	-294.00284	77.78483	560.68878	-293.00546	230.35225	568.42847	-260.98373	-111.04273	551.54559	570.49011	27.10341	558.65796	601.65057	
2644	26.430	-167.81720	61.93795	-166.75345	321.21817	14.97427	-74.91482	-264.41397	36.98833	250.85297	179.09856	37.49912	350.21176	156.42552	821.70721	-294.32788	76.96456	559.92914	-293.22797	229.07956	567.80402	-261.13782	-111.63633	552.46167	570.62939	26.62305	559.75592	601.64093	
2645	26.440	-169.62344	73.94089	-172.89290	320.57394	14.88459	-75.36776	-264.70303	37.58288	250.74776	178.40947	38.29232	349.87296	155.94601	821.09930	-294.65784	75.69395	559.47278	-293.01532	228.30035	567.15997	-261.12668	-112.06372	553.45972	570.87018	25.55306	560.84509	601.76056	
2646	26.450	-170.42633	85.74985	-179.87422	320.32086	14.82976	-75.65710	-265.05417	37.90960	250.69408	178.55826	38.74132	349.88596	154.93025	820.52173	-295.24051	74.60835	559.17523	-293.00241	226.95311	566.88153	-261.26382	-112.37391	554.29779	571.10217	25.65927	561.43890	601.90399	
2647	26.460	-167.96744	96.98214	-184.94984	319.87750	14.91200	-75.97803	-265.55582	38.29288	250.26862	178.10410	39.16320	349.55853	153.82948	820.31287	-295.53589	73.51969	559.10211	-293.07050	225.81166	566.75568	-261.41797	-113.42714	554.67291	571.11810	24.87189	562.01611	601.90698	
2648	26.470	-166.74454	106.23649	-186.67397	319.33490	14.69529	-76.15678	-266.05481	38.53259	249.99248	177.55777	39.99949	349.20303	152.90828	820.40240	-295.59808	72.52807	559.02966	-293.14380	225.06532	566.89581	-261.39185	-114.08926	554.96796	571.18134	24.15105	562.36243	601.82593	
2649	26.480	-166.33395	115.72600	-186.92645	319.05829	14.65697	-76.27503	-266.35040	38.91572	249.68065	177.20316	40.18887	348.91266	150.88470	820.65900	-295.84872	71.95203	558.95514	-293.09967	224.58839	566.91174	-261.34045	-115.00612	555.20703	571.17896	23.20687	562.75787	601.72491	
2650	26.490	-167.47244	124.93970	-187.14304	318.59821	14.20275	-76.67804	-266.44571	39.17020	249.63310	176.91400	40.60095	348.62756	149.84450	820.71729	-295.83691	71.23185	558.76294	-293.25629	223.53072	566.80090	-261.42044	-116.04673	555.71368	570.87482	22.61444	563.27026	601.64233	
2651	26.500	-169.14642	134.77515	-188.94069	318.45584	14.05684	-76.73628	-266.58154	39.39392	249.53842	176.63576	41.46927	348.33893	149.38202	820.34247	-296.13599	70.50194	558.18903	-293.31860	222.86955	566.49976	-261.43454	-116.56329	556.25928	570.84021	21.55720	563.81921	601.49951	
2652	26.510	-171.99266	144.05786	-192.16963	318.11624	13.81632	-77.13237	-266.74585	39.74074	249.23558	176.61449	42.00422	348.07413	148.69110	819.83197	-296.61481	69.73023	557.93359	-293.28619	222.03552	566.24994	-261.46518	-117.13521	556.91534	570.93561	20.79182	564.64899	601.53937	
2653	26.520	-173.13583	150.72978	-196.03802	318.42853	14.00956	-77.39417	-266.97205	40.19234	248.69823	176.75151	42.40450	347.78638	148.02238	819.55676	-297.24304	68.72684	557.76270	-293.47607	221.28885	566.01178	-261.64282	-118.12183	557.68579	570.77618	20.42089	565.35596	601.74219	
